<svg width="203" height="117" xmlns="http://www.w3.org/2000/svg"><g fill="none" fill-rule="evenodd"><path d="M202.787 69.62s-12.371-4.877-13.318-20.96c-.948-16.082.944-22.766.944-22.766s-7.551 15.739-30.472 6.843c-22.92-8.896-14.686-23.41-14.686-23.41s-9.285 12.154-23.512 10.189c-14.226-1.966-17.942-16.769-17.942-16.769S90.543 21.025 73.586 22.039C58.548 22.938 36.685.591 36.685.591s11.816 20.191-.838 29.672C23.193 39.744.055 35.255.055 35.255S25.24 41.012 31.46 57.899c6.22 16.888-4.327 33.497-4.327 33.497s24.864-14.962 44.626 2.666c19.762 17.628 21.953 22.029 21.953 22.029s12.146-31.971 37.62-19.945c25.474 12.024 28.435 14.925 28.435 14.925s-2.196-25.029 9.01-31.827c11.206-6.798 34.01-9.624 34.01-9.624zM70.658 18.116C84.092 20.268 94.65 7.287 94.65 7.287c-24.815 16.653-45.381-.182-45.381-.182s7.956 8.86 21.389 11.011zm50.047 79.977c-14.011-.112-20.265 17.116-20.265 17.116s10.243-23.533 54.11-1.477c0 0-19.833-15.527-33.845-15.639zm66.107-21.484a19.705 19.705 0 00-3.061.799c1.839-.531 3.061-.799 3.061-.799zm-20.096 11.658c-2.491 7.83-2.257 14.779-2.257 14.779s4.867-20.6 19.292-25.638c-5.155 1.493-15.197 5.086-17.035 10.859zm-6.545-58.575c8.528 4.893 22.597-1.036 22.597-1.036-26.084 3.629-33.952-14.293-33.952-14.293s2.828 10.437 11.355 15.329zM10.529 43.771C30.363 59.298 26.09 83.144 26.09 83.144s4.301-12.273 1.694-21.547c-2.606-9.274-17.255-17.826-17.255-17.826z" fill="#CF3476"/><path d="M163.588 64.427l-7.538-2.951.688-.445 10.3-6.629 1.462-.942-.548-1.696c-.104-.324-2.684-7.976-12.71-10.844-7.94-2.272-16.071 1.442-22.547 10.029l4.282-15.754-2.044-.098-12.232-.585-1.599-.077-3.61 20.489-4.398-17.927-1.161-.016-11.932-.161-1.519-.02-.353 1.779-4.083 20.605-2.78-19.966-.229-1.652-1.457.15-10.379 1.075-.974.101-11.581 23.259a11.68 11.68 0 00-3.629-6.992c2.746-3.441 7.618-11.089 5.623-20.119-2.697-12.206-22.182-11.038-23.011-10.983l-1.566.106-.216 1.839-6.598 55.709 1.394.352c.626.158 13.454 3.266 21.727-4.224l.887.152 9.933 1.706 1.378.237 4.357-11.411 3.411-.048-.104 11.086 1.247.288 8.098 1.873-.445 2.241-.435 2.201 1.869.096 12.428.638 1.748.091.215-2.072 1.331-12.904 1.831 16.682 1.345.024 11.5.207 1.4.025 2.505-9.217c.834 2.796 2.338 5.09 4.507 6.643 4.258 3.048 9.043 2.342 12.494 1.083l-1.211 2.429-1.077 2.157 1.894.681 9.395 3.374 1.479.53 12.091-29.548.822-2.001-1.675-.655zm-14.841-5.809l-1.426-.559-.766 1.672-5.87 12.815 2.111.455 2.492.538c-1.849.808-3.909 1.201-5.3-.037-.618-1.362 1.063-10.109 6.52-15.125 1.967-1.807 3.624-2.529 4.926-2.147 1.732.509 2.621 2.826 2.865 3.574l-.006.984-5.546-2.17zm-96.073 4.16c.794.049 1.572.246 1.884.659.067.09.272.361.066 1.297-.413 1.888-1.569 3.071-2.654 3.793l.704-5.749zm1.934-14.927l.857-7.297c.664.152 1.325.435 1.656.925.175.258.378.731.129 1.847-.455 2.044-1.563 3.518-2.642 4.525z" fill="#1A1919"/><path d="M166.319 62.345l-7.54-2.951 10.99-7.074 1.461-.941-.548-1.697c-.104-.324-2.684-7.976-12.711-10.844-7.939-2.272-16.071 1.443-22.547 10.029l4.284-15.754-2.044-.098-12.232-.584-1.6-.077-3.609 20.489-4.401-17.928-1.158-.016-11.933-.16-1.518-.02-4.438 22.383-3.009-21.618-1.454.151-10.379 1.075-.975.101-.514 1.03L69.376 60.07a11.05 11.05 0 00-.114-.679c-.595-3.035-2.205-5.089-3.516-6.314 2.747-3.441 7.618-11.088 5.625-20.119-2.697-12.206-22.184-11.038-23.012-10.982l-1.564.105-.219 1.839-6.596 55.709 1.393.353c.625.158 13.454 3.265 21.727-4.225l10.821 1.858 1.377.237 4.356-11.412 3.412-.047-.089 9.562-.016 1.524 1.249.289 8.097 1.872-.879 4.442 1.869.096 12.428.64 1.747.089.215-2.072 1.331-12.903 1.831 16.681 1.343.024 11.501.207 1.401.025.44-1.616 2.066-7.601c.835 2.796 2.338 5.091 4.506 6.644 4.257 3.047 9.044 2.342 12.495 1.084l-1.212 2.427-1.077 2.158 1.893.68 9.397 3.374 1.477.531L167.992 63l-1.673-.655zm-14.841-5.809l-1.426-.559-.767 1.672-5.87 12.815 2.112.455 2.491.538c-1.848.808-3.909 1.201-5.299-.036-.619-1.362 1.062-10.11 6.52-15.125 1.965-1.807 3.623-2.53 4.926-2.148 1.731.509 2.62 2.826 2.865 3.574l-.007.984-5.545-2.17zm-96.074 4.161c.795.048 1.573.245 1.883.658.069.091.273.362.067 1.298-.414 1.888-1.569 3.07-2.654 3.793l.704-5.749zm1.934-14.928l.857-7.297c.663.153 1.324.435 1.657.925.175.258.378.731.129 1.849-.456 2.043-1.565 3.515-2.643 4.523z" fill="#1A1919"/><path d="M62.907 53.273s9.096-8.943 6.683-19.866c-2.412-10.923-21.408-9.645-21.408-9.645l-6.396 53.994s16.604 4.187 23.362-7.721c6.761-11.909-2.241-16.762-2.241-16.762zm-6.282-17.208s6.196-.459 4.919 5.268c-1.278 5.727-6.46 7.857-6.46 7.857l1.541-13.125zm-4.121 33.152l1.312-10.699s6.273-1.13 5.104 4.213c-1.17 5.342-6.416 6.486-6.416 6.486zm72.58-34.999l-4.733 26.86-5.983-24.389-11.933-.161-6.096 30.74-4.154-29.852-10.378 1.074-17.512 35.172 9.934 1.705 4.267-11.176 6.208-.089-.106 11.433 9.661 2.236-.822 4.14 12.428.64 3.017-29.209 3.404 31.027 11.5.207 13.53-49.773-12.232-.585zM80.768 58.239l4.092-10.72-.092 9.886-4 .834zm69.915-.012l-4.789 10.456 7.139 1.54s-7.496 6.395-11.625 2.552c-1.908-1.774.533-12.557 6.747-18.269 7.975-7.331 10.498 2.447 10.498 2.447l10.302-6.63s-2.288-7.072-11.652-9.751c-9.365-2.678-18.201 3.743-24.22 14.729-5.884 10.74-6.52 22.384-.08 26.994C139.831 87.183 148.476 81 148.476 81l-3.725 7.459 9.396 3.374 11.376-27.796-14.84-5.81z" fill="#FFFFFE"/><path d="M103.342 20.563l.434-2.706-2.72.345-8.841 1.124-2.813.358 10.533 22.145 3.407-21.266zM82.393 77.956l.522-1.954-4.48-1.269-.763.457-16.971 10.201 3.977 1.494 11.803 4.429 2.119.796.585-2.187 3.208-11.967zm29.417 12.738l-1.764-10.575-12.7 17.485 4.069-.035 16.178-.134.788-3.94-6.571-2.801zm69.821-24.758l-.212-12.304-2.55.702-21.124 5.808 21.126 7.756 2.812 1.033-.052-2.995zM144.03 25.263l-1.331 12.784 15.136-11.375-13.552-3.837-.253 2.428zm-102.311 6.88l-.28-2.83-2.596 1.157-4.981 2.217-1.864.83 1.773 4.045-4.597 4.225 14.675 11.839-2.13-21.483z" fill="#1A1919"/><path d="M103.138 19.266l.454-2.836-12.113 1.54-2.948.374 11.038 23.204 3.569-22.282zM81.185 79.407l.55-2.05-4.696-1.33-.8.481-13.968 8.396-3.814 2.294 16.533 6.204 2.221.835 3.974-14.83zm30.828 13.347l-1.849-11.081-13.308 18.321 4.264-.035 16.951-.141.827-4.13-6.885-2.934zm73.163-25.944l-.223-12.893-18.334 5.042-6.473 1.78 6.302 2.314 15.835 5.813 2.946 1.082-.053-3.138zm-39.402-42.62l-1.393 13.397 15.858-11.92-14.2-4.02-.265 2.543zM38.566 31.399l-.293-2.965-2.721 1.213-5.218 2.323-1.953.87.856 1.958.999 2.28-4.815 4.426 1.942 1.57 13.434 10.837-2.231-22.512z" fill="#1A1919"/><path d="M92.474 21.363l6.479 13.621 2.362-14.746-8.841 1.125zM78.729 76.949l-13.33 8.014 11.803 4.429 3.207-11.967-1.68-.476zm30.099 8.341l-7.43 10.227 16.178-.135-7.605-3.24-1.143-6.852zm70.584-28.978l-14.945 4.111 15.111 5.548-.166-9.659zm-34.183-22.733l8.062-6.06-7.218-2.043-.844 8.103zm-110.532.983l1.543 3.519-3.923 3.604 9.006 7.265-1.645-16.605-4.981 2.217z" fill="#D2DB2F"/></g></svg>