<svg width="884" height="380" xmlns="http://www.w3.org/2000/svg" xmlns:xlink="http://www.w3.org/1999/xlink"><defs><linearGradient x1="50.002%" y1="100.15%" x2="50.002%" y2=".05%" id="a"><stop stop-color="#2B2A29" offset="0%"/><stop stop-color="#C8C3BE" offset="49.02%"/><stop stop-color="#2B2A29" offset="100%"/></linearGradient><rect id="b" x="20" y="52.574" width="382" height="16" rx="2.739"/></defs><g fill="none" fill-rule="evenodd"><path d="M20.605 61.574H314c-5.875 53.035-22.42 105.357-22.203 159.063.216 53.747 16.458 105.986 22.203 158.937-48.9-5.115-97.755-19.83-146.74-20.376-48.986-.545-97.799 14.884-146.655 20.376C15.205 326.623-.043 274.259 0 220.637c0-53.664 15.205-106.028 20.605-159.063z" fill="#000"/><path d="M28.374 63.778c45.424-.041 90.848-.204 136.273-.204 45.424 0 90.848.163 136.312.204-5.82 50.466-21.043 100.32-20.84 151.398.204 51.158 15.142 100.932 20.881 151.398-45.465-5.173-90.807-19.022-136.353-19.592-45.506-.53-90.89 14.052-136.313 19.592C23.002 316.149 9 266.253 9 215.216c.04-51.077 14.002-100.972 19.374-151.438z" fill="#FEFEFE"/><g><use fill="url(#a)" xlink:href="#b"/><use fill="#000" xlink:href="#b"/></g><path d="M794.128 16.42l18.571.936c3.055 8.514 3.87 17.353 13.929 18.29 10.752 1.018 17.798-5.092 26.228 3.748.611 9.939-10.1 14.827-15.069 19.756-22.889 23.055 3.095 31.69 17.065 40.408 7.86 4.888 19.101 7.82 18.368 19.674-12.178 5.622-19.916 1.874-31.808 5.622-10.467 3.218-16.413 9.369-20.079 18.615-3.706 9.166-5.905 21.834-1.955 31.61 9.775 23.911 24.03-.407 56.49 136.093 19.222 80.694 7.452 67.619-68.83 67.619H769.57c-12.137 0-27.735 3.625-30.342-8.392-3.828-17.515 2.933-17.108-10.711-66.926l-26.31-87.538c-10.182-27.047-92.003 20.938-149.957-34.746-20.853-20.041-10.997-33.035-24.396-51.977-21.015-29.736-80.884-6.965-97.094-17.963-7.534-5.133-4.806-4.074-15.395-3.992h-58.158c-11.933.04-27.206 1.262-27.206-11.61.122-28.962 0-57.801 0-86.723 0-4.603 3.747-8.35 8.35-8.35h12.665c4.602 0 6.232 4.277 8.35 8.35l5.457 10.51 409.879-2.81c1.751-3.545 5.05-11.04 9.652-12.303 8.634-2.362 7.453 6.273 9.775 12.098zM602.18 173.53c12.055 1.018 20.771-4.155 27.735-9.45 7.698-5.866 11.974-14.298 10.752-26.844 16.74 4.847 43.782 37.027 8.512 51.284-25.291 10.265-56.977 0-74.938-12.587-24.558-17.27-21.26-45.337 15.68-49.288 22.156-2.322 27.45-.244 30.342 17.434 3.665 22.974-14.54 16.824-18.083 29.451z" fill="#000"/><g transform="translate(46 111)" fill-rule="nonzero"><circle stroke="#CF3776" stroke-width="14" fill="#CF3776" cx="102" cy="102" r="102"/><circle stroke="#FFF" stroke-width="14" fill="#FFF" cx="103" cy="101" r="72"/><path fill="#000" d="M54 124.136L69.762 131l36.528-79.31L117 18.621 82.998 8l-10.71 38.078zM50 130l7.11 14.15L73 146.434l-11.477 11.001L64.218 173 50 165.65 35.782 173l2.741-15.566-11.523-11 15.89-2.283zM111 144.136L126.773 151l36.509-79.31L174 38.575 139.973 28l-10.719 38.078zM106 150l7.11 14.166L129 166.45l-11.523 11.012L120.218 193 106 185.689 91.782 193l2.695-15.537L83 166.451l15.89-2.285z"/></g></g></svg>