<svg version="1.1" id="Capa_1" xmlns="http://www.w3.org/2000/svg" x="0" y="0" viewBox="0 0 528 1061.4" xml:space="preserve"><style>.st21{stroke:#000;stroke-width:.5}.st22{fill:#cf3776}</style><path class="st22" d="M313 8.6h70L232 503.5l-27.9-8.7-5.2-78.8z"/><path class="st21" d="M382.3 8.6s66-1.7 66 1.3-162.4 496.4-162.4 496.4l-54.3-2.9L382.3 8.6z"/><path class="st22" d="M447.2 9.3h71l-108 351-110.9 145.4-13.3 1.1zM271 176.6l-36.7 118.9L166.8 9.6h65.5zM204.4 417.9l5 72-5.5 4.8-50.8-82L40.1 9.6h61.2z"/><path class="st21" d="M206.4 426.1l-.3-36.4 28.3-94.3L167.6 9.8h-66.1z"/><path d="M211.7 639.5l83.3-.6-19.8-31.5-.3-.5-.2-.4-7.6-3-29.9-.1-8.2 4.8z"/><path d="M244.3 603.5h18V565l.2-12.6.3-6.9-21.8.4.6 5.6 1.7 55.4"/><path d="M199 487l8.2-2.8 3 14s-1.8 47 29.5 52.2c31.3 5.2 43.5-11.5 43.5-11.5s15.2-26.2 16.1-33.2c1.3-10 8.6-11.3 8.6-11.3s.5 58.3-42.5 70c-43 11.7-63.2-34-63.2-34L199 487z"/><circle cx="249.4" cy="838.4" r="197.2" fill="#cf3776" stroke="#cf3776" stroke-width="14" stroke-miterlimit="10"/><circle cx="250.3" cy="839" r="139.2" fill="#fff" stroke="#fff" stroke-width="14" stroke-miterlimit="10"/><path d="M157.9 881.7l30.1 13.2 69.7-152.7 20.5-63.7-65-20.5-20.4 73.3zM148.6 892.8l13.6 27.7 30.6 4.4-22.1 21.5 5.2 30.5-27.3-14.4-27.4 14.4 5.3-30.5-22.1-21.5 30.5-4.4zM266.5 919.9l30.1 13.2 69.7-152.7 20.4-63.8-64.9-20.4-20.5 73.4zM257.2 931l13.7 27.7 30.5 4.5-22.1 21.5 5.2 30.4-27.3-14.3-27.3 14.3 5.1-30.4-22-21.5 30.5-4.5z"/></svg>