<svg width="728" height="782" xmlns="http://www.w3.org/2000/svg"><g fill="none" fill-rule="evenodd"><path d="M32.8 219.633C12.376 196.34 0 165.86 0 132.5 0 59.322 59.546 0 133 0c39.091 0 74.243 16.801 98.578 43.551l8.962 11.329L620 590.474 569.74 648 47 232.668l-14.2-13.035z" fill-opacity=".123" fill="#6D7278" fill-rule="nonzero"/><g transform="translate(31 29)"><ellipse fill="#FFF" cx="100.5" cy="105" rx="91.5" ry="88"/><circle stroke="#CF3776" stroke-width="36" cx="104" cy="104" r="104"/><path fill="#000" fill-rule="nonzero" d="M48 131.243L65.763 139l41.166-89.627L119 12.003 80.68 0 68.61 43.031zM44 138l8.036 16.125L70 156.726l-12.974 12.536L60.073 187 44 178.625 27.927 187l3.1-17.738L18 156.726l17.964-2.6zM112 153.243L129.776 161l41.145-89.627L183 33.95 144.652 22l-12.08 43.031zM106 160l8.036 16.142L132 178.746l-13.026 12.55L122.073 209 106 200.668 89.927 209l3.047-17.705L80 178.746l17.964-2.604z"/></g><path d="M565.494 674.623l23.502 22.132v35.186l33.07 32.084h51.461l38.196-35.264c21.623-31.203 21.623-56.222 0-75.058-21.624-18.836-40.205-39.214-55.743-61.133-17.28-15.879-36.68-16.714-58.203-2.504-21.522 14.21-35.114 35.422-40.777 63.637l8.494 20.92z" fill="#000" fill-rule="nonzero"/><path fill="#000" fill-rule="nonzero" d="M620 763.025l-25.61 18.17h106.15l-27.013-18.17z"/></g></svg>